<svg fill="white" xmlns="http://www.w3.org/2000/svg" xmlns:xlink="http://www.w3.org/1999/xlink"
  xmlns:serif="http://www.serif.com/" viewBox="0 0 100 125" version="1.1" xml:space="preserve"
  style="" x="0px" y="0px" fill-rule="evenodd" clip-rule="evenodd" stroke-linejoin="round"
  stroke-miterlimit="2"><path d="M63.274,83.868c-0.304,0.808 -0.857,1.513 -1.597,2.004c0,-0 -8.459,5.795 -24.802,5.795c-16.343,-0 -24.802,-5.795 -24.802,-5.795c-1.165,-0.772 -1.865,-2.076 -1.865,-3.473l0,-15.754c0,-5.52 2.193,-10.813 6.096,-14.716c3.903,-3.903 9.196,-6.096 14.715,-6.096l11.712,0c4.999,0 9.814,1.8 13.577,5.04c3.025,-2 6.65,-3.165 10.547,-3.165l3.79,0c10.574,0 19.147,8.573 19.147,19.147l-0,9.319c-0,1.397 -0.7,2.701 -1.865,3.473c0,-0 -6.535,4.52 -19.177,4.52c-1.98,-0 -3.806,-0.112 -5.476,-0.299Zm-1.848,-26.367c1.379,2.821 2.116,5.944 2.116,9.144l-0,8.862c1.558,0.202 3.295,0.326 5.208,0.326c6.176,0 10.452,-1.306 12.708,-2.232l0,-6.746c0,-5.972 -4.841,-10.813 -10.813,-10.813l-3.79,-0c-1.979,-0 -3.834,0.531 -5.429,1.459Zm-6.218,9.143c0,-3.309 -1.314,-6.483 -3.654,-8.823c-2.34,-2.34 -5.514,-3.654 -8.823,-3.654l-11.712,-0c-3.309,-0 -6.483,1.314 -8.823,3.654c-2.34,2.34 -3.654,5.514 -3.654,8.823c-0,0 -0,13.238 0,13.238c2.878,1.296 9.058,3.451 18.333,3.451c9.275,0 15.454,-2.155 18.333,-3.451l0,-13.238Zm-18.333,-58.311c8.757,0 15.872,6.088 15.872,15.907c0,5.488 -2.407,10.975 -6.076,14.495c-2.736,2.625 -6.147,4.182 -9.796,4.182c-3.649,-0 -7.06,-1.557 -9.796,-4.182c-3.669,-3.52 -6.076,-9.007 -6.076,-14.495c-0,-9.819 7.115,-15.907 15.872,-15.907Zm-0,8.334c-4.164,-0 -7.539,2.904 -7.539,7.573c-0,3.205 1.369,6.426 3.512,8.482c1.14,1.093 2.507,1.861 4.027,1.861c1.52,0 2.887,-0.768 4.027,-1.861c2.143,-2.056 3.512,-5.277 3.512,-8.482c0,-4.669 -3.375,-7.573 -7.539,-7.573Zm31.875,0.573c7.142,-0 12.946,4.964 12.946,12.971c-0,4.401 -1.935,8.8 -4.878,11.624c-2.251,2.159 -5.065,3.425 -8.068,3.425c-3.003,0 -5.817,-1.266 -8.068,-3.425c-2.943,-2.824 -4.878,-7.223 -4.878,-11.624c0,-8.007 5.804,-12.971 12.946,-12.971Zm-0,8.333c-2.549,-0 -4.613,1.78 -4.613,4.638c0,1.787 0.649,3.576 1.694,4.919c0.77,0.989 1.746,1.797 2.919,1.797c1.173,0 2.149,-0.808 2.919,-1.797c1.045,-1.343 1.694,-3.132 1.694,-4.919c-0,-2.858 -2.064,-4.638 -4.613,-4.638Z"/></svg>