<svg fill="white" xmlns="http://www.w3.org/2000/svg" xmlns:xlink="http://www.w3.org/1999/xlink" version="1.1"
  x="0px" y="0px" viewBox="0 0 32 40" enable-background="new 0 0 32 32" xml:space="preserve"><path d="M8.625,7.176h0.432c0.476,0,0.862-0.385,0.862-0.862V2.862C9.918,2.386,9.532,2,9.056,2H8.625  C8.148,2,7.761,2.386,7.761,2.862v3.451C7.761,6.791,8.148,7.176,8.625,7.176z"/><path d="M20.568,7.176H21c0.476,0,0.862-0.385,0.862-0.862V2.862C21.862,2.386,21.476,2,21,2h-0.432  c-0.477,0-0.863,0.386-0.863,0.862v3.451C19.705,6.791,20.091,7.176,20.568,7.176z"/><path d="M12.357,11.556c0-0.213-0.175-0.388-0.389-0.388H9.747c-0.214,0-0.389,0.175-0.389,0.388v1.687  c0,0.215,0.174,0.389,0.389,0.389h2.221c0.214,0,0.389-0.174,0.389-0.389V11.556z"/><path d="M16.307,11.556c0-0.213-0.174-0.388-0.388-0.388h-2.182c-0.213,0-0.387,0.175-0.387,0.388v1.687  c0,0.215,0.174,0.389,0.387,0.389h2.182c0.214,0,0.388-0.174,0.388-0.389V11.556z"/><path d="M17.691,13.631h2.182c0.214,0,0.388-0.174,0.388-0.389v-1.687c0-0.213-0.173-0.388-0.388-0.388h-2.182  c-0.213,0-0.388,0.175-0.388,0.388v1.687C17.303,13.457,17.478,13.631,17.691,13.631z"/><path d="M21.646,13.631h2.18c0.214,0,0.389-0.174,0.389-0.389v-1.687c0-0.213-0.174-0.388-0.389-0.388h-2.18  c-0.214,0-0.389,0.175-0.389,0.388v1.687C21.257,13.457,21.432,13.631,21.646,13.631z"/><path d="M8.366,15.008c0-0.214-0.174-0.388-0.39-0.388H5.797c-0.214,0-0.39,0.174-0.39,0.388v1.686c0,0.214,0.175,0.388,0.39,0.388  h2.179c0.215,0,0.39-0.174,0.39-0.388V15.008z"/><path d="M12.357,15.008c0-0.214-0.175-0.388-0.389-0.388H9.747c-0.214,0-0.389,0.174-0.389,0.388v1.686  c0,0.214,0.174,0.388,0.389,0.388h2.221c0.214,0,0.389-0.174,0.389-0.388V15.008z"/><path d="M16.307,15.008c0-0.214-0.174-0.388-0.388-0.388h-2.182c-0.213,0-0.387,0.174-0.387,0.388v1.686  c0,0.214,0.174,0.388,0.387,0.388h2.182c0.214,0,0.388-0.174,0.388-0.388V15.008z"/><path d="M17.303,16.694c0,0.214,0.174,0.388,0.388,0.388h2.182c0.214,0,0.388-0.174,0.388-0.388v-1.686  c0-0.214-0.173-0.388-0.388-0.388h-2.182c-0.213,0-0.388,0.174-0.388,0.388V16.694z"/><path d="M21.257,16.694c0,0.214,0.175,0.388,0.389,0.388h2.18c0.214,0,0.389-0.174,0.389-0.388v-1.686  c0-0.214-0.174-0.388-0.389-0.388h-2.18c-0.214,0-0.389,0.174-0.389,0.388V16.694z"/><path d="M8.366,18.461c0-0.215-0.174-0.388-0.39-0.388H5.797c-0.214,0-0.39,0.172-0.39,0.388v1.686c0,0.214,0.175,0.388,0.39,0.388  h2.179c0.215,0,0.39-0.173,0.39-0.388V18.461z"/><path d="M12.357,18.461c0-0.215-0.175-0.388-0.389-0.388H9.747c-0.214,0-0.389,0.172-0.389,0.388v1.686  c0,0.214,0.174,0.388,0.389,0.388h2.221c0.214,0,0.389-0.173,0.389-0.388V18.461z"/><path d="M16.307,18.461c0-0.215-0.174-0.388-0.388-0.388h-2.182c-0.213,0-0.387,0.172-0.387,0.388v1.686  c0,0.214,0.174,0.388,0.387,0.388h2.182c0.214,0,0.388-0.173,0.388-0.388V18.461z"/><path d="M7.977,21.525H5.797c-0.214,0-0.39,0.173-0.39,0.388v1.686c0,0.214,0.175,0.388,0.39,0.388h2.179  c0.215,0,0.39-0.174,0.39-0.388v-1.686C8.366,21.699,8.192,21.525,7.977,21.525z"/><path d="M11.968,21.525H9.747c-0.214,0-0.389,0.173-0.389,0.388v1.686c0,0.214,0.174,0.388,0.389,0.388h2.221  c0.214,0,0.389-0.174,0.389-0.388v-1.686C12.357,21.699,12.182,21.525,11.968,21.525z"/><path d="M15.919,21.525h-2.182c-0.213,0-0.387,0.173-0.387,0.388v1.686c0,0.214,0.174,0.388,0.387,0.388h2.182  c0.214,0,0.388-0.174,0.388-0.388v-1.686C16.307,21.699,16.133,21.525,15.919,21.525z"/><path d="M3.38,26.931H17.4c-0.235-0.49-0.419-1.007-0.535-1.552H3.898V9.775h21.827v7.619c0.552,0.178,1.071,0.427,1.553,0.731  V5.362c0-0.572-0.463-1.036-1.035-1.036h-3.781v1.987c0,0.806-0.656,1.462-1.462,1.462h-0.432c-0.807,0-1.463-0.656-1.463-1.462  V4.327h-8.586v1.987c0,0.806-0.656,1.462-1.462,1.462H8.625c-0.807,0-1.464-0.656-1.464-1.462V4.327H3.38  c-0.572,0-1.036,0.464-1.036,1.036v20.534C2.345,26.468,2.808,26.931,3.38,26.931z"/><path d="M17.572,23.958c0,3.332,2.71,6.042,6.042,6.042s6.042-2.71,6.042-6.042s-2.71-6.042-6.042-6.042  S17.572,20.626,17.572,23.958z M28.416,23.958c0,2.648-2.154,4.802-4.802,4.802s-4.802-2.154-4.802-4.802s2.154-4.802,4.802-4.802  S28.416,21.31,28.416,23.958z"/><path d="M21.517,23.688c-0.271-0.271-0.745-0.273-1.019-0.002c-0.281,0.28-0.282,0.737-0.002,1.019l1.575,1.581  c0.136,0.136,0.317,0.211,0.51,0.212h0c0.192,0,0.373-0.075,0.509-0.211l3.639-3.639c0.136-0.136,0.211-0.317,0.211-0.509  s-0.075-0.373-0.211-0.509c-0.272-0.271-0.746-0.271-1.019,0l-3.129,3.129L21.517,23.688z"/></svg>