<svg fill="white" xmlns="http://www.w3.org/2000/svg" data-name="Layer 1" viewBox="0 0 128 160" x="0px" y="0px">
  <title>146 Web Icon Set 91 expanded</title>
  <path
    d="M99.90039,78.49023a10.24009,10.24009,0,0,0,2.60937-.33984,1.99966,1.99966,0,1,0-1.01953-3.86719,6.1936,6.1936,0,0,1-7.55957-4.3125,1.9996,1.9996,0,0,0-3.86133,1.041A10.17685,10.17685,0,0,0,99.90039,78.49023Z" />
  <path
    d="M84.36719,72.59375A2.00026,2.00026,0,0,0,83.10254,75.124l4,12a2.0002,2.0002,0,1,0,3.79492-1.26562l-4-12A1.99632,1.99632,0,0,0,84.36719,72.59375Z" />
  <path
    d="M71.08789,75.69238a8.56152,8.56152,0,0,1-8.23438,3.88281c-.0957-.01074-.18359-.02051-.27344-.03418a8.26953,8.26953,0,0,1-.45654,2.64807l15.29541-4.25842a3.34718,3.34718,0,0,0,2.47559-2.96387c.14844-2.15625-1.6709-3.41406-3.43066-3.66992l-3.80829-.54413a9.56917,9.56917,0,0,1-.97534,3.90063l1.71527.24506-2.20325.61346C71.15509,75.57092,71.12646,75.634,71.08789,75.69238Z" />
  <path
    d="M125.46777,65.89551c-2.86914,0-4.96973.05762-6.65723.10449a28.64675,28.64675,0,0,1-8.08984-.49414,15.98261,15.98261,0,0,1-6.4707-3.48047,48.89,48.89,0,0,0-4.90918-4.165c-.04395-.0293-.08887-.05762-.13477-.083L92.44434,53.959a8.13355,8.13355,0,0,1-2.68555-2.68457c-.2998-.48437-.63086-1.15625-.98145-1.86816-1.17969-2.39062-2.293-4.64844-4.3916-4.8877a3.13693,3.13693,0,0,0-2.84082,1.29688,8.70923,8.70923,0,0,0-1.52051,2.749,7.38735,7.38735,0,0,0,.49316,5.70605,23.183,23.183,0,0,0,5.34766,6.94238c.62988.53223.83789.94238.82324,1.14941-.02832.38867-.62012.96289-1.01758,1.21094-.02972.01837-2.82489,1.58228-9.4917,1.12537a8.534,8.534,0,0,1-4.08643,2.66467,7.64454,7.64454,0,0,1,.31482.96173c.25336.03192.50293.063.76526.09686,9.95117,1.2832,14.16309-1.167,14.56641-1.4248.27734-.166,2.72363-1.70117,2.93555-4.30664a5.29569,5.29569,0,0,0-2.22656-4.53223,19.54,19.54,0,0,1-4.37891-5.72754,3.37152,3.37152,0,0,1-.25293-2.59473,4.59121,4.59121,0,0,1,.30176-.69922c.37793.63281.79883,1.48633,1.07129,2.03906.39355.79883.7666,1.55371,1.165,2.19922a11.79166,11.79166,0,0,0,4.18945,4.10254l6.6084,3.7334a53.18015,53.18015,0,0,1,4.38477,3.75391,19.76844,19.76844,0,0,0,8.34473,4.45215,32.43233,32.43233,0,0,0,9.03809.58105c1.66406-.0459,3.73438-.10254,6.54785-.10254a2,2,0,0,0,0-4Z" />
  <path
    d="M126.44043,89.16992a78.7947,78.7947,0,0,0-22.39551-1.59277,1.99726,1.99726,0,0,0-1.00684.38965c-4.27637,3.19727-17.043,7.68652-17.17187,7.73145a2.014,2.014,0,0,0-.5752.31543c-2.51562,1.97852-9.541,7.34473-11.80273,8.39453-.01758.00781-.0332.01563-.04883.02148a1.80636,1.80636,0,0,1,.665-1.08691c1.07617-.93945,3.40332-2.5957,5.457-4.05664,2.249-1.59961,4.19043-2.98145,5.08984-3.80566a3.38941,3.38941,0,0,0,1.10254-3.16992,3.7044,3.7044,0,0,0-1.76172-2.585,4.28494,4.28494,0,0,0-3.33008-.28516c-.05859.01953-.11719.042-.1748.06738-5.67383,2.48828-14.76855,6.45605-16.417,7.12207a.55671.55671,0,0,1-.376-.209,1.62,1.62,0,0,1-.376-1.03223,1.0829,1.0829,0,0,1,.55371-.52832l14.791-5.88184a1.96367,1.96367,0,0,0,.53027-.31348,3.96357,3.96357,0,0,0,.93262-4.29785c-.6582-2.293-2.80176-3.41211-5.47168-2.84082L60.9317,84.44885a7.54117,7.54117,0,0,1-5.71393,3.02625,5.94474,5.94474,0,0,0,4.98242,1.21924L75.4873,85.43848c.48633-.10449.74707-.04395.79395.03223.01367.0459.02441.0918.03418.13672L62.335,91.167c-.03516.01465-.07129.0293-.10547.0459A5.10455,5.10455,0,0,0,59.79,93.5a5.0052,5.0052,0,0,0,.458,4.98535,4.58317,4.58317,0,0,0,4.44824,2.11523c.36914-.042.59766-.06738,15.165-6.45117-.79785.582-1.71582,1.23535-2.61914,1.87793-2.2334,1.58887-4.543,3.23242-5.76855,4.30273-2.3457,2.04883-2.46875,4.81934-1.37793,6.498A3.685,3.685,0,0,0,73.20605,108.5a4.66228,4.66228,0,0,0,1.9668-.46387c2.90039-1.34668,10.59863-7.31836,12.33008-8.67383,2.02344-.71973,12.72754-4.60547,17.44238-7.84277a76.65394,76.65394,0,0,1,20.61426,1.55273,2.00026,2.00026,0,1,0,.88086-3.90234Z" />
  <path
    d="M2.44043,68.07227a76.48,76.48,0,0,1,20.61426-1.55273c4.71484,3.2373,15.41895,7.123,17.44238,7.84277,1.73145,1.35547,9.42969,7.32715,12.33105,8.6748A4.66751,4.66751,0,0,0,54.79395,83.5a3.685,3.685,0,0,0,3.11035-1.67187c1.09082-1.67871.96777-4.44922-1.37793-6.49707-1.22559-1.07129-3.53516-2.71484-5.76855-4.30371-.9043-.64355-1.82227-1.2959-2.61914-1.87793,14.56738,6.38379,14.7959,6.40918,15.165,6.45117A4.584,4.584,0,0,0,67.752,73.48535,5.0052,5.0052,0,0,0,68.21,68.5a5.10455,5.10455,0,0,0-2.43945-2.28711c-.03418-.0166-.07031-.03125-.10547-.0459l-13.9873-5.5625q.01462-.08643.03516-.18164a1.45846,1.45846,0,0,1,.79883.01563L67.7998,63.69434c2.01268.43164,5.19727-.28613,5.93848-2.74512a5.11484,5.11484,0,0,0-.335-4.0498,6.33244,6.33244,0,0,0-3.75586-2.8125l-15.042-4.18848,13.001-1.85742a5.10364,5.10364,0,0,0,3.55371-2.19336,5.19525,5.19525,0,0,0-1.1582-6.60547,5.00138,5.00138,0,0,0-3.14258-.94922c-1.709.0498-5.61133.2666-12.54395,1.16211-8.48145,1.09473-11.95312-.8623-12-.88965-.32324-.19336-.9707-.792-1.00391-1.2002-.02148-.26367.29395-.70508.82227-1.15234a23.19329,23.19329,0,0,0,5.34961-6.94238,7.39092,7.39092,0,0,0,.49121-5.708,8.71456,8.71456,0,0,0-1.51953-2.748,3.13954,3.13954,0,0,0-2.84082-1.2959c-2.09863.23926-3.21191,2.49707-4.3916,4.8877-.35059.71191-.68164,1.38379-.98145,1.86914a8.08872,8.08872,0,0,1-2.752,2.71973l-6.69531,3.78223c-.0459.02539-.09082.05371-.13477.083a48.89,48.89,0,0,0-4.90918,4.165,15.93681,15.93681,0,0,1-6.4541,3.47754A28.653,28.653,0,0,1,9.18945,41c-1.6875-.04687-3.78809-.10449-6.65723-.10449a2,2,0,1,0,0,4c2.81348,0,4.88379.05664,6.54785.10254a32.511,32.511,0,0,0,9.05469-.584,19.784,19.784,0,0,0,8.32813-4.44922,52.88928,52.88928,0,0,1,4.38379-3.75293l6.543-3.69824a11.8131,11.8131,0,0,0,4.25586-4.1377c.39844-.64648.77148-1.40137,1.165-2.2002.27246-.55273.69434-1.40723,1.07227-2.04a4.74267,4.74267,0,0,1,.2998.69824,3.37484,3.37484,0,0,1-.251,2.59668,19.55259,19.55259,0,0,1-4.38086,5.72754,5.29679,5.29679,0,0,0-2.22559,4.53223,6.11514,6.11514,0,0,0,2.89063,4.2793c.44824.2832,4.65918,2.73828,14.61133,1.45215,6.76172-.873,10.51367-1.083,12.14844-1.13086a1.28572,1.28572,0,0,1,.60156.126,1.42328,1.42328,0,0,1,.24512,1.22559,1.12335,1.12335,0,0,1-.7832.43945L51.53027,46.29688c-1.75391.25586-3.57324,1.51367-3.4248,3.667a3.34588,3.34588,0,0,0,2.47363,2.96582L68.5752,57.94043a2.435,2.435,0,0,1,1.32422.88867,1.01195,1.01195,0,0,1,.05566.78809,2.40671,2.40671,0,0,1-1.32129.165L53.34473,56.52637c-2.666-.57031-4.81348.54785-5.47168,2.84082a3.9655,3.9655,0,0,0,.93359,4.29785,1.96367,1.96367,0,0,0,.53027.31348l14.791,5.88184a1.0829,1.0829,0,0,1,.55371.52832,1.62,1.62,0,0,1-.376,1.03223.55671.55671,0,0,1-.376.209c-1.64844-.666-10.74316-4.63379-16.417-7.12207-.05762-.02539-.11621-.04785-.1748-.06738a4.28065,4.28065,0,0,0-3.33008.28516,3.7044,3.7044,0,0,0-1.76172,2.585,3.39113,3.39113,0,0,0,1.10449,3.17188c.89746.82227,2.83887,2.2041,5.08789,3.80371,2.05371,1.46094,4.38086,3.11719,5.457,4.05762a1.80222,1.80222,0,0,1,.665,1.08594c-.01562-.00586-.03125-.01367-.04785-.02051-2.26172-1.05078-9.28711-6.416-11.80371-8.39551a2.014,2.014,0,0,0-.5752-.31543c-.12891-.04492-12.89551-4.53418-17.17187-7.73145a1.99726,1.99726,0,0,0-1.00684-.38965A78.87663,78.87663,0,0,0,1.55957,64.16992a2.00026,2.00026,0,0,0,.88086,3.90234Z" />
</svg>