<svg fill="white" xmlns="http://www.w3.org/2000/svg" data-name="Layer 1" viewBox="0 0 128 160" x="0px" y="0px">
  <title>146 Web Icon Set 91 expanded</title>
  <path
    d="M76.81891,59.33917a3.19659,3.19659,0,0,1,.24207,1.15405l1.32416.68317c.15338-.23517.32434-.45984.49567-.68414a11.12121,11.12121,0,0,1,.90826-1.06061l1.81549-1.96436c-7.53467-4.2912-26.8974-15.41455-27.0567-15.51025a2,2,0,1,0-2.06836,3.42383C52.64771,45.4826,68.03772,54.32452,76.81891,59.33917Z" />
  <path
    d="M6.97559,34.75586c1.87793,7.52246,6.9707,14.18164,13.29883,17.39551l10.75214,6.184a11.39069,11.39069,0,0,1,3.973-2.32941L22.22266,48.65723q-.04687-.02783-.09668-.05273c-5.3418-2.69434-9.66016-8.37207-11.26953-14.81836a30.454,30.454,0,0,1-.80371-4.542c-.709-6.01562,5.3916-18.41309,12.52051-22.80273a19.099,19.099,0,0,1,5.57324-2.03809,21.27654,21.27654,0,0,1,8.78027.11035c.06348.01563.12793.02832.19238.03809l27.01953,4.001A2.8385,2.8385,0,0,1,65.876,11.999l-1.03125,3.82813a2.96877,2.96877,0,0,1-1.32715,1.86621,2.80052,2.80052,0,0,1-2.0918.42285c-.03711-.00781-.07422-.01562-.1123-.02148L48.84033,16.04327a1.9943,1.9943,0,0,0-3.689-.47394,12.95373,12.95373,0,0,1-17.54883,5.07617,1.99966,1.99966,0,0,0-1.91016,3.51367,16.97889,16.97889,0,0,0,21.42334-4.34564l13.18652,2.16852L85.53809,36.585a3.3174,3.3174,0,0,1,1.33887,4.0752L86.127,42a2.87133,2.87133,0,0,1-1.7373,1.292,3.381,3.381,0,0,1-2.47949-.14648,1.98942,1.98942,0,0,0-.78168-.23132L63.71191,32.92285a1.99958,1.99958,0,0,0-1.99023,3.46875L89.49219,52.32227a1.59854,1.59854,0,0,1,.63092.67529,10.928,10.928,0,0,1,4.26227.57092,5.97248,5.97248,0,0,0-2.9479-4.74036l-4.2393-2.43195a6.403,6.403,0,0,0,2.43658-2.4743l.75-1.34082a7.32881,7.32881,0,0,0-2.89355-9.4873L66.13562,20.73529a6.81453,6.81453,0,0,0,2.5929-3.95795l1.03223-3.8291c.833-3.80371-1.32326-7.5332-4.80762-8.31348-.04785-.00977-.0957-.01953-.14355-.02637L37.77734.60547A25.34569,25.34569,0,0,0,27.376.47754a23.18394,23.18394,0,0,0-6.81836,2.51074C11.86035,8.33984,5.21777,22.39063,6.0752,29.66895A34.247,34.247,0,0,0,6.97559,34.75586Z" />
  <path
    d="M85.39453,59.26074l-2.68066,2.90332a7.081,7.081,0,0,0-2.10413,4.66107L57.42188,54.86328a7.65719,7.65719,0,0,0-9.98828,2.71582l-.72949,1.34277A6.99041,6.99041,0,0,0,45.845,62.5835l-4.65063-2.42139c-3.0166-1.667-7.16992-.252-9.09473,3.127l-1.20117,2.20605c-.02246.042-.04492.08594-.06445.12988-1.76074,3.88477-.668,7.43848,2.998,9.752.10529.06653.897.4881,2.14917,1.14758a4.66619,4.66619,0,0,0-1.46655,1.60632l-1.43652,2.542a8.19269,8.19269,0,0,0-.68457,6.14648,6.38555,6.38555,0,0,0,2.9873,3.97461l3.41583,1.77118L37.4502,94.9707a7.75192,7.75192,0,0,0-.68262,6.04395,5.27654,5.27654,0,0,0,2.78516,3.21387L78.626,124.5166a26.988,26.988,0,0,0,13.56543,3.46973,30.01882,30.01882,0,0,0,9.32715-1.47559,35.94132,35.94132,0,0,0,4.97754-2.02051c6.97559-3.31543,15.67285-16.96973,15.498-27.68555a23.87771,23.87771,0,0,0-1.623-7.28613A26.37211,26.37211,0,0,0,114.38281,80.46L95.50488,58.88672q-.04687-.0542-.09961-.10547C92.78711,56.19434,88.32617,56.377,85.39453,59.26074ZM92.5498,61.584l18.87012,21.56445c.03223.03613.06836.07422.10254.1084a22.41846,22.41846,0,0,1,5.12988,7.73438,19.79628,19.79628,0,0,1,1.3457,5.97266c.14258,8.84668-7.44824,21.1709-13.25879,23.93262a32.1747,32.1747,0,0,1-4.46777,1.81348c-6.6748,2.19043-14.208,1.5498-19.66016-1.667-.03125-.01855-.0625-.03613-.09473-.05273l-39.16406-20.335c-.0332-.0166-.06738-.0332-.10059-.04883a1.23484,1.23484,0,0,1-.68164-.832,3.80285,3.80285,0,0,1,.36328-2.83789l1.41559-2.5293,18.99554,9.84961a2.00018,2.00018,0,0,0,1.8916-3.52441L60.875,99.42188a2.03787,2.03787,0,0,0-.57324-.21191L37.27051,87.26855a2.48191,2.48191,0,0,1-1.02637-1.53223,4.1733,4.1733,0,0,1,.31348-3.09082l1.4375-2.543a2.96647,2.96647,0,0,1,2.16168-1.38812c9.42108,4.928,26.04706,13.5708,26.23383,13.66351A2,2,0,0,0,68.16113,88.791c-.21582-.10742-30.94727-16.084-32.19434-16.79687-1.98437-1.252-2.42676-2.60352-1.51855-4.6543l1.14551-2.10449c.80176-1.4082,2.583-2.17285,3.708-1.54883l33.208,17.291a2.0005,2.0005,0,0,0,1.84766-3.54883L51.43707,65.49506a3.72957,3.72957,0,0,1-1.23785-4.62982l.72949-1.34277a3.65306,3.65306,0,0,1,4.60742-1.13184L82.77686,72.44385l8.45068,9.3208a2.00009,2.00009,0,0,0,2.96289-2.6875L85.498,69.48926q-.03662-.041-.07617-.0791a2.99722,2.99722,0,0,1-.834-2.13867,3.20512,3.20512,0,0,1,.99609-2.32324l2.68066-2.90332A3.16,3.16,0,0,1,92.5498,61.584Z" />
</svg>